<svg version="1.1" viewBox="0.0 0.0 508.0 466.0" fill="none" stroke="none" stroke-linecap="square" stroke-miterlimit="10" width="508" height="466" xmlns:xlink="http://www.w3.org/1999/xlink" xmlns="http://www.w3.org/2000/svg"><path fill="#ffffff" d="M0 0L508.0 0L508.0 466.0L0 466.0L0 0Z" fill-rule="nonzero"/><path fill="#ffffff" d="M0 0L508.0 0L508.0 466.0L0 466.0L0 0Z" fill-rule="nonzero"/><path stroke="#cccccc" stroke-width="1.0" stroke-linecap="butt" d="M254.0 233.0C254.0 233.0 254.0 233.0 254.0 233.0C254.0 233.0 254.0 233.0 254.0 233.0C254.0 233.0 254.0 233.0 254.0 233.0C254.0 233.0 254.0 233.0 254.0 233.0" fill-rule="nonzero"/><path fill="#000000" d="M251.0625 226.35938Q251.0625 228.26562 250.40625 229.20312Q249.76562 230.125 248.375 230.125Q247.01562 230.125 246.35938 229.21875Q245.70312 228.3125 245.67188 226.5L245.67188 225.0625Q245.67188 223.17188 246.3125 222.26562Q246.96875 221.34375 248.35938 221.34375Q249.73438 221.34375 250.39062 222.23438Q251.04688 223.10938 251.0625 224.95312L251.0625 226.35938ZM249.96875 224.875Q249.96875 223.5 249.57812 222.875Q249.20312 222.23438 248.35938 222.23438Q247.53125 222.23438 247.14062 222.875Q246.76562 223.5 246.76562 224.79688L246.76562 226.53125Q246.76562 227.90625 247.15625 228.57812Q247.5625 229.23438 248.375 229.23438Q249.17188 229.23438 249.5625 228.60938Q249.95312 227.98438 249.96875 226.65625L249.96875 224.875Z" fill-rule="nonzero"/><path stroke="#cccccc" stroke-width="1.0" stroke-linecap="butt" d="M294.2 233.0C294.2 210.79816 276.20184 192.8 254.0 192.8C231.79816 192.8 213.8 210.79816 213.8 233.0C213.8 255.20184 231.79816 273.2 254.0 273.2C276.20184 273.2 294.2 255.20184 294.2 233.0" fill-rule="nonzero"/><path fill="#000000" d="M249.26562 189.8L248.1875 189.8L248.1875 182.58125L246.0 183.37813L246.0 182.39375L249.10938 181.22188L249.26562 181.22188L249.26562 189.8Z" fill-rule="nonzero"/><path stroke="#cccccc" stroke-width="1.0" stroke-linecap="butt" d="M334.4 233.0C334.4 188.59631 298.4037 152.6 254.0 152.6C209.59631 152.6 173.6 188.59631 173.6 233.0C173.6 277.4037 209.59631 313.4 254.0 313.4C298.4037 313.4 334.4 277.4037 334.4 233.0" fill-rule="nonzero"/><path fill="#000000" d="M251.29688 149.6L245.70312 149.6L245.70312 148.81876L248.65625 145.5375Q249.3125 144.7875 249.5625 144.33438Q249.8125 143.86563 249.8125 143.36563Q249.8125 142.69376 249.40625 142.27188Q249.01562 141.83438 248.32812 141.83438Q247.53125 141.83438 247.07812 142.30313Q246.625 142.75626 246.625 143.58438L245.54688 143.58438Q245.54688 142.39688 246.29688 141.67813Q247.0625 140.94376 248.32812 140.94376Q249.53125 140.94376 250.21875 141.56876Q250.90625 142.19376 250.90625 143.24063Q250.90625 144.49063 249.29688 146.24063L247.01562 148.70938L251.29688 148.70938L251.29688 149.6Z" fill-rule="nonzero"/><path stroke="#cccccc" stroke-width="1.0" stroke-linecap="butt" d="M374.6 233.0C374.6 166.39445 320.60553 112.4 254.0 112.4C187.39445 112.4 133.4 166.39445 133.4 233.0C133.4 299.60553 187.39445 353.6 254.0 353.6C320.60553 353.6 374.6 299.60553 374.6 233.0" fill-rule="nonzero"/><path fill="#000000" d="M247.28125 104.60313L248.09375 104.60313Q248.875 104.5875 249.3125 104.19688Q249.75 103.80625 249.75 103.13438Q249.75 101.63438 248.25 101.63438Q247.54688 101.63438 247.125 102.04063Q246.71875 102.44688 246.71875 103.10313L245.625 103.10313Q245.625 102.0875 246.35938 101.41563Q247.10938 100.74375 248.25 100.74375Q249.45312 100.74375 250.14062 101.38438Q250.82812 102.025 250.82812 103.16563Q250.82812 103.72813 250.46875 104.24375Q250.10938 104.75938 249.48438 105.025Q250.1875 105.24375 250.5625 105.75938Q250.95312 106.275 250.95312 107.025Q250.95312 108.16563 250.20312 108.85313Q249.45312 109.525 248.25 109.525Q247.0625 109.525 246.29688 108.86875Q245.54688 108.2125 245.54688 107.15L246.64062 107.15Q246.64062 107.82188 247.07812 108.22813Q247.51562 108.63438 248.26562 108.63438Q249.04688 108.63438 249.45312 108.22813Q249.875 107.80625 249.875 107.04063Q249.875 106.30625 249.42188 105.91563Q248.96875 105.50938 248.09375 105.49375L247.28125 105.49375L247.28125 104.60313Z" fill-rule="nonzero"/><path stroke="#cccccc" stroke-width="1.0" stroke-linecap="butt" d="M414.8 233.0C414.8 144.19261 342.80737 72.2 254.0 72.2C165.19261 72.2 93.2 144.19261 93.2 233.0C93.2 321.80737 165.19261 393.8 254.0 393.8C342.80737 393.8 414.8 321.80737 414.8 233.0" fill-rule="nonzero"/><path fill="#000000" d="M250.28125 66.34062L251.46875 66.34062L251.46875 67.21562L250.28125 67.21562L250.28125 69.2L249.20312 69.2L249.20312 67.21562L245.3125 67.21562L245.3125 66.575L249.125 60.668747L250.28125 60.668747L250.28125 66.34062ZM246.54688 66.34062L249.20312 66.34062L249.20312 62.153122L249.0625 62.387497L246.54688 66.34062Z" fill-rule="nonzero"/><path stroke="#cccccc" stroke-width="1.0" stroke-linecap="butt" d="M455.0 233.0C455.0 121.99077 365.00925 32.0 254.0 32.0C142.99077 32.0 53.0 121.99077 53.0 233.0C53.0 344.00925 142.99077 434.0 254.0 434.0C365.00925 434.0 455.0 344.00925 455.0 233.0" fill-rule="nonzero"/><path fill="#000000" d="M246.20312 24.71875L246.64062 20.46875L251.01562 20.46875L251.01562 21.46875L247.5625 21.46875L247.29688 23.796875Q247.9375 23.421875 248.73438 23.421875Q249.89062 23.421875 250.57812 24.203125Q251.26562 24.96875 251.26562 26.28125Q251.26562 27.59375 250.54688 28.359375Q249.84375 29.125 248.5625 29.125Q247.4375 29.125 246.71875 28.5Q246.0 27.859375 245.90625 26.75L246.92188 26.75Q247.03125 27.484375 247.45312 27.859375Q247.875 28.234375 248.5625 28.234375Q249.3125 28.234375 249.75 27.71875Q250.1875 27.203125 250.1875 26.296875Q250.1875 25.4375 249.71875 24.921875Q249.25 24.40625 248.46875 24.40625Q247.76562 24.40625 247.35938 24.703125L247.07812 24.9375L246.20312 24.71875Z" fill-rule="nonzero"/><path stroke="#cccccc" stroke-width="1.0" stroke-linecap="butt" d="M254.0 233.0L254.0 32.0" fill-rule="nonzero"/><path fill="#000000" d="M254.76562 14.5L253.6875 14.5L253.6875 7.28125L251.5 8.078125L251.5 7.09375L254.60938 5.921875L254.76562 5.921875L254.76562 14.5Z" fill-rule="nonzero"/><path stroke="#cccccc" stroke-width="1.0" stroke-linecap="butt" d="M254.0 233.0L372.0 70.0" fill-rule="nonzero"/><path fill="#000000" d="M387.79688 56.5L382.20312 56.5L382.20312 55.71875L385.15625 52.4375Q385.8125 51.6875 386.0625 51.234375Q386.3125 50.765625 386.3125 50.265625Q386.3125 49.59375 385.90625 49.171875Q385.51562 48.734375 384.82812 48.734375Q384.03125 48.734375 383.57812 49.203125Q383.125 49.65625 383.125 50.484375L382.04688 50.484375Q382.04688 49.296875 382.79688 48.578125Q383.5625 47.84375 384.82812 47.84375Q386.03125 47.84375 386.71875 48.46875Q387.40625 49.09375 387.40625 50.140625Q387.40625 51.390625 385.79688 53.140625L383.51562 55.609375L387.79688 55.609375L387.79688 56.5Z" fill-rule="nonzero"/><path stroke="#cccccc" stroke-width="1.0" stroke-linecap="butt" d="M254.0 233.0L445.0 171.0" fill-rule="nonzero"/><path fill="#000000" d="M465.78125 163.70312L466.59375 163.70312Q467.375 163.6875 467.8125 163.29688Q468.25 162.90625 468.25 162.23438Q468.25 160.73438 466.75 160.73438Q466.04688 160.73438 465.625 161.14062Q465.21875 161.54688 465.21875 162.20312L464.125 162.20312Q464.125 161.1875 464.85938 160.51562Q465.60938 159.84375 466.75 159.84375Q467.95312 159.84375 468.64062 160.48438Q469.32812 161.125 469.32812 162.26562Q469.32812 162.82812 468.96875 163.34375Q468.60938 163.85938 467.98438 164.125Q468.6875 164.34375 469.0625 164.85938Q469.45312 165.375 469.45312 166.125Q469.45312 167.26562 468.70312 167.95312Q467.95312 168.625 466.75 168.625Q465.5625 168.625 464.79688 167.96875Q464.04688 167.3125 464.04688 166.25L465.14062 166.25Q465.14062 166.92188 465.57812 167.32812Q466.01562 167.73438 466.76562 167.73438Q467.54688 167.73438 467.95312 167.32812Q468.375 166.90625 468.375 166.14062Q468.375 165.40625 467.92188 165.01562Q467.46875 164.60938 466.59375 164.59375L465.78125 164.59375L465.78125 163.70312Z" fill-rule="nonzero"/><path stroke="#cccccc" stroke-width="1.0" stroke-linecap="butt" d="M254.0 233.0L445.0 295.0" fill-rule="nonzero"/><path fill="#000000" d="M468.78125 303.64062L469.96875 303.64062L469.96875 304.51562L468.78125 304.51562L468.78125 306.5L467.70312 306.5L467.70312 304.51562L463.8125 304.51562L463.8125 303.875L467.625 297.96875L468.78125 297.96875L468.78125 303.64062ZM465.04688 303.64062L467.70312 303.64062L467.70312 299.45312L467.5625 299.6875L465.04688 303.64062Z" fill-rule="nonzero"/><path stroke="#cccccc" stroke-width="1.0" stroke-linecap="butt" d="M254.0 233.0L372.0 396.0" fill-rule="nonzero"/><path fill="#000000" d="M382.70312 414.21875L383.14062 409.96875L387.51562 409.96875L387.51562 410.96875L384.0625 410.96875L383.79688 413.29688Q384.4375 412.92188 385.23438 412.92188Q386.39062 412.92188 387.07812 413.70312Q387.76562 414.46875 387.76562 415.78125Q387.76562 417.09375 387.04688 417.85938Q386.34375 418.625 385.0625 418.625Q383.9375 418.625 383.21875 418.0Q382.5 417.35938 382.40625 416.25L383.42188 416.25Q383.53125 416.98438 383.95312 417.35938Q384.375 417.73438 385.0625 417.73438Q385.8125 417.73438 386.25 417.21875Q386.6875 416.70312 386.6875 415.79688Q386.6875 414.9375 386.21875 414.42188Q385.75 413.90625 384.96875 413.90625Q384.26562 413.90625 383.85938 414.20312L383.57812 414.4375L382.70312 414.21875Z" fill-rule="nonzero"/><path stroke="#cccccc" stroke-width="1.0" stroke-linecap="butt" d="M254.0 233.0L254.0 434.0" fill-rule="nonzero"/><path fill="#000000" d="M255.46875 452.96875L255.46875 453.875L255.26562 453.875Q254.0 453.90625 253.25 454.64062Q252.5 455.35938 252.375 456.67188Q253.0625 455.90625 254.21875 455.90625Q255.32812 455.90625 256.0 456.6875Q256.67188 457.46875 256.67188 458.71875Q256.67188 460.03125 255.95312 460.82812Q255.23438 461.625 254.01562 461.625Q252.79688 461.625 252.03125 460.6875Q251.28125 459.73438 251.28125 458.25L251.28125 457.84375Q251.28125 455.48438 252.28125 454.23438Q253.28125 452.98438 255.26562 452.96875L255.46875 452.96875ZM254.04688 456.8125Q253.48438 456.8125 253.01562 457.14062Q252.54688 457.46875 252.35938 457.98438L252.35938 458.375Q252.35938 459.4375 252.82812 460.07812Q253.3125 460.71875 254.01562 460.71875Q254.75 460.71875 255.17188 460.1875Q255.59375 459.64062 255.59375 458.76562Q255.59375 457.89062 255.17188 457.35938Q254.75 456.8125 254.04688 456.8125Z" fill-rule="nonzero"/><path stroke="#cccccc" stroke-width="1.0" stroke-linecap="butt" d="M254.0 233.0L136.0 396.0" fill-rule="nonzero"/><path fill="#000000" d="M125.71875 410.57812L122.1875 418.5L121.046875 418.5L124.5625 410.85938L119.953125 410.85938L119.953125 409.96875L125.71875 409.96875L125.71875 410.57812Z" fill-rule="nonzero"/><path stroke="#cccccc" stroke-width="1.0" stroke-linecap="butt" d="M254.0 233.0L63.0 295.0" fill-rule="nonzero"/><path fill="#000000" d="M43.390625 300.1875Q43.390625 300.82812 43.046875 301.32812Q42.703125 301.82812 42.140625 302.10938Q42.796875 302.39062 43.1875 302.95312Q43.578125 303.5 43.578125 304.20312Q43.578125 305.29688 42.828125 305.96875Q42.09375 306.625 40.875 306.625Q39.640625 306.625 38.890625 305.96875Q38.15625 305.29688 38.15625 304.20312Q38.15625 303.5 38.53125 302.95312Q38.90625 302.39062 39.578125 302.10938Q39.015625 301.82812 38.6875 301.32812Q38.359375 300.82812 38.359375 300.1875Q38.359375 299.10938 39.046875 298.48438Q39.734375 297.84375 40.875 297.84375Q42.0 297.84375 42.6875 298.48438Q43.390625 299.10938 43.390625 300.1875ZM42.5 304.17188Q42.5 303.45312 42.046875 303.01562Q41.59375 302.5625 40.859375 302.5625Q40.125 302.5625 39.671875 303.01562Q39.234375 303.45312 39.234375 304.1875Q39.234375 304.90625 39.671875 305.32812Q40.109375 305.73438 40.875 305.73438Q41.625 305.73438 42.0625 305.3125Q42.5 304.89062 42.5 304.17188ZM40.875 298.73438Q40.234375 298.73438 39.828125 299.14062Q39.4375 299.53125 39.4375 300.21875Q39.4375 300.85938 39.828125 301.26562Q40.21875 301.67188 40.859375 301.67188Q41.515625 301.67188 41.90625 301.26562Q42.296875 300.85938 42.296875 300.21875Q42.296875 299.5625 41.890625 299.15625Q41.484375 298.73438 40.875 298.73438Z" fill-rule="nonzero"/><path stroke="#cccccc" stroke-width="1.0" stroke-linecap="butt" d="M254.0 233.0L63.0 171.0" fill-rule="nonzero"/><path fill="#000000" d="M42.359375 164.75Q42.03125 165.15625 41.546875 165.40625Q41.078125 165.64062 40.515625 165.64062Q39.78125 165.64062 39.234375 165.28125Q38.6875 164.92188 38.390625 164.26562Q38.09375 163.59375 38.09375 162.79688Q38.09375 161.95312 38.40625 161.26562Q38.734375 160.57812 39.328125 160.21875Q39.9375 159.84375 40.734375 159.84375Q42.0 159.84375 42.71875 160.79688Q43.453125 161.75 43.453125 163.375L43.453125 163.6875Q43.453125 166.1875 42.46875 167.32812Q41.484375 168.46875 39.5 168.5L39.28125 168.5L39.28125 167.59375L39.515625 167.59375Q40.859375 167.5625 41.578125 166.89062Q42.296875 166.21875 42.359375 164.75ZM40.6875 164.75Q41.234375 164.75 41.6875 164.42188Q42.15625 164.07812 42.375 163.59375L42.375 163.15625Q42.375 162.09375 41.90625 161.42188Q41.4375 160.75 40.734375 160.75Q40.015625 160.75 39.578125 161.29688Q39.15625 161.84375 39.15625 162.75Q39.15625 163.625 39.5625 164.1875Q39.984375 164.75 40.6875 164.75Z" fill-rule="nonzero"/><path stroke="#cccccc" stroke-width="1.0" stroke-linecap="butt" d="M254.0 233.0L136.0 70.0" fill-rule="nonzero"/><path fill="#000000" d="M120.265625 56.5L119.1875 56.5L119.1875 49.28125L117.0 50.078125L117.0 49.09375L120.109375 47.921875L120.265625 47.921875L120.265625 56.5ZM129.0625 52.859375Q129.0625 54.765625 128.40625 55.703125Q127.765625 56.625 126.375 56.625Q125.015625 56.625 124.359375 55.71875Q123.703125 54.8125 123.671875 53.0L123.671875 51.5625Q123.671875 49.671875 124.3125 48.765625Q124.96875 47.84375 126.359375 47.84375Q127.734375 47.84375 128.39062 48.734375Q129.04688 49.609375 129.0625 51.453125L129.0625 52.859375ZM127.96875 51.375Q127.96875 50.0 127.578125 49.375Q127.203125 48.734375 126.359375 48.734375Q125.53125 48.734375 125.140625 49.375Q124.765625 50.0 124.765625 51.296875L124.765625 53.03125Q124.765625 54.40625 125.15625 55.078125Q125.5625 55.734375 126.375 55.734375Q127.171875 55.734375 127.5625 55.109375Q127.953125 54.484375 127.96875 53.15625L127.96875 51.375Z" fill-rule="nonzero"/><path stroke="#cccccc" stroke-width="1.0" stroke-linecap="butt" d="M254.0 233.0L254.0 32.0" fill-rule="nonzero"/><path stroke="#4285f4" stroke-width="2.0" stroke-linecap="butt" d="M254.0 112.0L278.0 200.0L369.0 196.0L445.0 295.0L325.0 331.0L254.0 394.0L183.0 331.0L101.0 283.0L139.0 196.0L159.0 103.0Z" fill-rule="nonzero"/><path fill="#4285f4" d="M254.0 107.5L257.89713 109.75L257.89713 114.25L254.0 116.5L250.10289 114.25L250.10289 109.75Z" fill-rule="nonzero"/><path fill="#4285f4" d="M278.0 195.5L281.89713 197.75L281.89713 202.25L278.0 204.5L274.10287 202.25L274.10287 197.75Z" fill-rule="nonzero"/><path fill="#4285f4" d="M369.0 191.5L372.89713 193.75L372.89713 198.25L369.0 200.5L365.10287 198.25L365.10287 193.75Z" fill-rule="nonzero"/><path fill="#4285f4" d="M445.0 290.5L448.89713 292.75L448.89713 297.25L445.0 299.5L441.10287 297.25L441.10287 292.75Z" fill-rule="nonzero"/><path fill="#4285f4" d="M325.0 326.5L328.89713 328.75L328.89713 333.25L325.0 335.5L321.10287 333.25L321.10287 328.75Z" fill-rule="nonzero"/><path fill="#4285f4" d="M254.0 389.5L257.89713 391.75L257.89713 396.25L254.0 398.5L250.10289 396.25L250.10289 391.75Z" fill-rule="nonzero"/><path fill="#4285f4" d="M183.0 326.5L186.89711 328.75L186.89711 333.25L183.0 335.5L179.10289 333.25L179.10289 328.75Z" fill-rule="nonzero"/><path fill="#4285f4" d="M101.0 278.5L104.89712 280.75L104.89712 285.25L101.0 287.5L97.10288 285.25L97.10288 280.75Z" fill-rule="nonzero"/><path fill="#4285f4" d="M139.0 191.5L142.89711 193.75L142.89711 198.25L139.0 200.5L135.10289 198.25L135.10289 193.75Z" fill-rule="nonzero"/><path fill="#4285f4" d="M159.0 98.5L162.89711 100.75L162.89711 105.25L159.0 107.5L155.10289 105.25L155.10289 100.75Z" fill-rule="nonzero"/></svg>