<svg version="1.1" viewBox="0.0 0.0 373.0 343.0" fill="none" stroke="none" stroke-linecap="square" stroke-miterlimit="10" width="373" height="343" xmlns:xlink="http://www.w3.org/1999/xlink" xmlns="http://www.w3.org/2000/svg"><path fill="#ffffff" d="M0 0L373.0 0L373.0 343.0L0 343.0L0 0Z" fill-rule="nonzero"/><path fill="#ffffff" d="M0 0L373.0 0L373.0 343.0L0 343.0L0 0Z" fill-rule="nonzero"/><path stroke="#cccccc" stroke-width="1.0" stroke-linecap="butt" d="M187.0 172.0C187.0 172.0 187.0 172.0 187.0 172.0C187.0 172.0 187.0 172.0 187.0 172.0C187.0 172.0 187.0 172.0 187.0 172.0C187.0 172.0 187.0 172.0 187.0 172.0" fill-rule="nonzero"/><path fill="#000000" d="M184.0625 165.35938Q184.0625 167.26562 183.40625 168.20312Q182.76562 169.125 181.375 169.125Q180.01562 169.125 179.35938 168.21875Q178.70312 167.3125 178.67188 165.5L178.67188 164.0625Q178.67188 162.17188 179.3125 161.26562Q179.96875 160.34375 181.35938 160.34375Q182.73438 160.34375 183.39062 161.23438Q184.04688 162.10938 184.0625 163.95312L184.0625 165.35938ZM182.96875 163.875Q182.96875 162.5 182.57812 161.875Q182.20312 161.23438 181.35938 161.23438Q180.53125 161.23438 180.14062 161.875Q179.76562 162.5 179.76562 163.79688L179.76562 165.53125Q179.76562 166.90625 180.15625 167.57812Q180.5625 168.23438 181.375 168.23438Q182.17188 168.23438 182.5625 167.60938Q182.95312 166.98438 182.96875 165.65625L182.96875 163.875Z" fill-rule="nonzero"/><path stroke="#cccccc" stroke-width="1.0" stroke-linecap="butt" d="M214.9 172.0C214.9 156.59126 202.40874 144.1 187.0 144.1C171.59126 144.1 159.1 156.59126 159.1 172.0C159.1 187.40874 171.59126 199.9 187.0 199.9C202.40874 199.9 214.9 187.40874 214.9 172.0" fill-rule="nonzero"/><path fill="#000000" d="M182.26562 141.1L181.1875 141.1L181.1875 133.88126L179.0 134.67813L179.0 133.69376L182.10938 132.52188L182.26562 132.52188L182.26562 141.1Z" fill-rule="nonzero"/><path stroke="#cccccc" stroke-width="1.0" stroke-linecap="butt" d="M242.8 172.0C242.8 141.18251 217.81749 116.2 187.0 116.2C156.18251 116.2 131.2 141.18251 131.2 172.0C131.2 202.81749 156.18251 227.8 187.0 227.8C217.81749 227.8 242.8 202.81749 242.8 172.0" fill-rule="nonzero"/><path fill="#000000" d="M184.29688 113.2L178.70312 113.2L178.70312 112.41875L181.65625 109.1375Q182.3125 108.3875 182.5625 107.93437Q182.8125 107.46562 182.8125 106.96562Q182.8125 106.29375 182.40625 105.87187Q182.01562 105.43437 181.32812 105.43437Q180.53125 105.43437 180.07812 105.90312Q179.625 106.35625 179.625 107.18437L178.54688 107.18437Q178.54688 105.99687 179.29688 105.27812Q180.0625 104.54375 181.32812 104.54375Q182.53125 104.54375 183.21875 105.16875Q183.90625 105.79375 183.90625 106.84062Q183.90625 108.09062 182.29688 109.84062L180.01562 112.30937L184.29688 112.30937L184.29688 113.2Z" fill-rule="nonzero"/><path stroke="#cccccc" stroke-width="1.0" stroke-linecap="butt" d="M270.7 172.0C270.7 125.773766 233.22623 88.3 187.0 88.3C140.77377 88.3 103.3 125.773766 103.3 172.0C103.3 218.22623 140.77377 255.7 187.0 255.7C233.22623 255.7 270.7 218.22623 270.7 172.0" fill-rule="nonzero"/><path fill="#000000" d="M180.28125 80.50313L181.09375 80.50313Q181.875 80.4875 182.3125 80.09688Q182.75 79.70625 182.75 79.03438Q182.75 77.53438 181.25 77.53438Q180.54688 77.53438 180.125 77.94063Q179.71875 78.34688 179.71875 79.00313L178.625 79.00313Q178.625 77.9875 179.35938 77.31563Q180.10938 76.64375 181.25 76.64375Q182.45312 76.64375 183.14062 77.28438Q183.82812 77.925 183.82812 79.06563Q183.82812 79.62813 183.46875 80.14375Q183.10938 80.65938 182.48438 80.925Q183.1875 81.14375 183.5625 81.65938Q183.95312 82.175 183.95312 82.925Q183.95312 84.06563 183.20312 84.75313Q182.45312 85.425 181.25 85.425Q180.0625 85.425 179.29688 84.76875Q178.54688 84.1125 178.54688 83.05L179.64062 83.05Q179.64062 83.72188 180.07812 84.12813Q180.51562 84.53438 181.26562 84.53438Q182.04688 84.53438 182.45312 84.12813Q182.875 83.70625 182.875 82.94063Q182.875 82.20625 182.42188 81.81563Q181.96875 81.40938 181.09375 81.39375L180.28125 81.39375L180.28125 80.50313Z" fill-rule="nonzero"/><path stroke="#cccccc" stroke-width="1.0" stroke-linecap="butt" d="M298.6 172.0C298.6 110.36502 248.63498 60.4 187.0 60.4C125.36502 60.4 75.4 110.36502 75.4 172.0C75.4 233.63498 125.36502 283.6 187.0 283.6C248.63498 283.6 298.6 233.63498 298.6 172.0" fill-rule="nonzero"/><path fill="#000000" d="M183.28125 54.540627L184.46875 54.540627L184.46875 55.415627L183.28125 55.415627L183.28125 57.4L182.20312 57.4L182.20312 55.415627L178.3125 55.415627L178.3125 54.775L182.125 48.86875L183.28125 48.86875L183.28125 54.540627ZM179.54688 54.540627L182.20312 54.540627L182.20312 50.353127L182.0625 50.5875L179.54688 54.540627Z" fill-rule="nonzero"/><path stroke="#cccccc" stroke-width="1.0" stroke-linecap="butt" d="M326.5 172.0C326.5 94.956276 264.04373 32.5 187.0 32.5C109.956276 32.5 47.5 94.956276 47.5 172.0C47.5 249.04372 109.956276 311.5 187.0 311.5C264.04373 311.5 326.5 249.04372 326.5 172.0" fill-rule="nonzero"/><path fill="#000000" d="M179.20312 25.21875L179.64062 20.96875L184.01562 20.96875L184.01562 21.96875L180.5625 21.96875L180.29688 24.296875Q180.9375 23.921875 181.73438 23.921875Q182.89062 23.921875 183.57812 24.703125Q184.26562 25.46875 184.26562 26.78125Q184.26562 28.09375 183.54688 28.859375Q182.84375 29.625 181.5625 29.625Q180.4375 29.625 179.71875 29.0Q179.0 28.359375 178.90625 27.25L179.92188 27.25Q180.03125 27.984375 180.45312 28.359375Q180.875 28.734375 181.5625 28.734375Q182.3125 28.734375 182.75 28.21875Q183.1875 27.703125 183.1875 26.796875Q183.1875 25.9375 182.71875 25.421875Q182.25 24.90625 181.46875 24.90625Q180.76562 24.90625 180.35938 25.203125L180.07812 25.4375L179.20312 25.21875Z" fill-rule="nonzero"/><path stroke="#cccccc" stroke-width="1.0" stroke-linecap="butt" d="M187.0 172.0L187.0 33.0" fill-rule="nonzero"/><path fill="#000000" d="M187.76562 14.5L186.6875 14.5L186.6875 7.28125L184.5 8.078125L184.5 7.09375L187.60938 5.921875L187.76562 5.921875L187.76562 14.5Z" fill-rule="nonzero"/><path stroke="#cccccc" stroke-width="1.0" stroke-linecap="butt" d="M187.0 172.0L269.0 59.0" fill-rule="nonzero"/><path fill="#000000" d="M284.79688 45.5L279.20312 45.5L279.20312 44.71875L282.15625 41.4375Q282.8125 40.6875 283.0625 40.234375Q283.3125 39.765625 283.3125 39.265625Q283.3125 38.59375 282.90625 38.171875Q282.51562 37.734375 281.82812 37.734375Q281.03125 37.734375 280.57812 38.203125Q280.125 38.65625 280.125 39.484375L279.04688 39.484375Q279.04688 38.296875 279.79688 37.578125Q280.5625 36.84375 281.82812 36.84375Q283.03125 36.84375 283.71875 37.46875Q284.40625 38.09375 284.40625 39.140625Q284.40625 40.390625 282.79688 42.140625L280.51562 44.609375L284.79688 44.609375L284.79688 45.5Z" fill-rule="nonzero"/><path stroke="#cccccc" stroke-width="1.0" stroke-linecap="butt" d="M187.0 172.0L320.0 129.0" fill-rule="nonzero"/><path fill="#000000" d="M339.78125 121.703125L340.59375 121.703125Q341.375 121.6875 341.8125 121.296875Q342.25 120.90625 342.25 120.234375Q342.25 118.734375 340.75 118.734375Q340.04688 118.734375 339.625 119.140625Q339.21875 119.546875 339.21875 120.203125L338.125 120.203125Q338.125 119.1875 338.85938 118.515625Q339.60938 117.84375 340.75 117.84375Q341.95312 117.84375 342.64062 118.484375Q343.32812 119.125 343.32812 120.265625Q343.32812 120.828125 342.96875 121.34375Q342.60938 121.859375 341.98438 122.125Q342.6875 122.34375 343.0625 122.859375Q343.45312 123.375 343.45312 124.125Q343.45312 125.265625 342.70312 125.953125Q341.95312 126.625 340.75 126.625Q339.5625 126.625 338.79688 125.96875Q338.04688 125.3125 338.04688 124.25L339.14062 124.25Q339.14062 124.921875 339.57812 125.328125Q340.01562 125.734375 340.76562 125.734375Q341.54688 125.734375 341.95312 125.328125Q342.375 124.90625 342.375 124.140625Q342.375 123.40625 341.92188 123.015625Q341.46875 122.609375 340.59375 122.59375L339.78125 122.59375L339.78125 121.703125Z" fill-rule="nonzero"/><path stroke="#cccccc" stroke-width="1.0" stroke-linecap="butt" d="M187.0 172.0L320.0 215.0" fill-rule="nonzero"/><path fill="#000000" d="M342.78125 223.64062L343.96875 223.64062L343.96875 224.51562L342.78125 224.51562L342.78125 226.5L341.70312 226.5L341.70312 224.51562L337.8125 224.51562L337.8125 223.875L341.625 217.96875L342.78125 217.96875L342.78125 223.64062ZM339.04688 223.64062L341.70312 223.64062L341.70312 219.45312L341.5625 219.6875L339.04688 223.64062Z" fill-rule="nonzero"/><path stroke="#cccccc" stroke-width="1.0" stroke-linecap="butt" d="M187.0 172.0L269.0 285.0" fill-rule="nonzero"/><path fill="#000000" d="M279.70312 303.21875L280.14062 298.96875L284.51562 298.96875L284.51562 299.96875L281.0625 299.96875L280.79688 302.29688Q281.4375 301.92188 282.23438 301.92188Q283.39062 301.92188 284.07812 302.70312Q284.76562 303.46875 284.76562 304.78125Q284.76562 306.09375 284.04688 306.85938Q283.34375 307.625 282.0625 307.625Q280.9375 307.625 280.21875 307.0Q279.5 306.35938 279.40625 305.25L280.42188 305.25Q280.53125 305.98438 280.95312 306.35938Q281.375 306.73438 282.0625 306.73438Q282.8125 306.73438 283.25 306.21875Q283.6875 305.70312 283.6875 304.79688Q283.6875 303.9375 283.21875 303.42188Q282.75 302.90625 281.96875 302.90625Q281.26562 302.90625 280.85938 303.20312L280.57812 303.4375L279.70312 303.21875Z" fill-rule="nonzero"/><path stroke="#cccccc" stroke-width="1.0" stroke-linecap="butt" d="M187.0 172.0L187.0 312.0" fill-rule="nonzero"/><path fill="#000000" d="M188.46875 329.96875L188.46875 330.875L188.26562 330.875Q187.0 330.90625 186.25 331.64062Q185.5 332.35938 185.375 333.67188Q186.0625 332.90625 187.21875 332.90625Q188.32812 332.90625 189.0 333.6875Q189.67188 334.46875 189.67188 335.71875Q189.67188 337.03125 188.95312 337.82812Q188.23438 338.625 187.01562 338.625Q185.79688 338.625 185.03125 337.6875Q184.28125 336.73438 184.28125 335.25L184.28125 334.84375Q184.28125 332.48438 185.28125 331.23438Q186.28125 329.98438 188.26562 329.96875L188.46875 329.96875ZM187.04688 333.8125Q186.48438 333.8125 186.01562 334.14062Q185.54688 334.46875 185.35938 334.98438L185.35938 335.375Q185.35938 336.4375 185.82812 337.07812Q186.3125 337.71875 187.01562 337.71875Q187.75 337.71875 188.17188 337.1875Q188.59375 336.64062 188.59375 335.76562Q188.59375 334.89062 188.17188 334.35938Q187.75 333.8125 187.04688 333.8125Z" fill-rule="nonzero"/><path stroke="#cccccc" stroke-width="1.0" stroke-linecap="butt" d="M187.0 172.0L105.0 285.0" fill-rule="nonzero"/><path fill="#000000" d="M94.71875 299.57812L91.1875 307.5L90.046875 307.5L93.5625 299.85938L88.953125 299.85938L88.953125 298.96875L94.71875 298.96875L94.71875 299.57812Z" fill-rule="nonzero"/><path stroke="#cccccc" stroke-width="1.0" stroke-linecap="butt" d="M187.0 172.0L54.0 215.0" fill-rule="nonzero"/><path fill="#000000" d="M35.390625 220.1875Q35.390625 220.82812 35.046875 221.32812Q34.703125 221.82812 34.140625 222.10938Q34.796875 222.39062 35.1875 222.95312Q35.578125 223.5 35.578125 224.20312Q35.578125 225.29688 34.828125 225.96875Q34.09375 226.625 32.875 226.625Q31.640625 226.625 30.890625 225.96875Q30.15625 225.29688 30.15625 224.20312Q30.15625 223.5 30.53125 222.95312Q30.90625 222.39062 31.578125 222.10938Q31.015625 221.82812 30.6875 221.32812Q30.359375 220.82812 30.359375 220.1875Q30.359375 219.10938 31.046875 218.48438Q31.734375 217.84375 32.875 217.84375Q34.0 217.84375 34.6875 218.48438Q35.390625 219.10938 35.390625 220.1875ZM34.5 224.17188Q34.5 223.45312 34.046875 223.01562Q33.59375 222.5625 32.859375 222.5625Q32.125 222.5625 31.671875 223.01562Q31.234375 223.45312 31.234375 224.1875Q31.234375 224.90625 31.671875 225.32812Q32.109375 225.73438 32.875 225.73438Q33.625 225.73438 34.0625 225.3125Q34.5 224.89062 34.5 224.17188ZM32.875 218.73438Q32.234375 218.73438 31.828125 219.14062Q31.4375 219.53125 31.4375 220.21875Q31.4375 220.85938 31.828125 221.26562Q32.21875 221.67188 32.859375 221.67188Q33.515625 221.67188 33.90625 221.26562Q34.296875 220.85938 34.296875 220.21875Q34.296875 219.5625 33.890625 219.15625Q33.484375 218.73438 32.875 218.73438Z" fill-rule="nonzero"/><path stroke="#cccccc" stroke-width="1.0" stroke-linecap="butt" d="M187.0 172.0L54.0 129.0" fill-rule="nonzero"/><path fill="#000000" d="M34.359375 122.75Q34.03125 123.15625 33.546875 123.40625Q33.078125 123.640625 32.515625 123.640625Q31.78125 123.640625 31.234375 123.28125Q30.6875 122.921875 30.390625 122.265625Q30.09375 121.59375 30.09375 120.796875Q30.09375 119.953125 30.40625 119.265625Q30.734375 118.578125 31.328125 118.21875Q31.9375 117.84375 32.734375 117.84375Q34.0 117.84375 34.71875 118.796875Q35.453125 119.75 35.453125 121.375L35.453125 121.6875Q35.453125 124.1875 34.46875 125.328125Q33.484375 126.46875 31.5 126.5L31.28125 126.5L31.28125 125.59375L31.515625 125.59375Q32.859375 125.5625 33.578125 124.890625Q34.296875 124.21875 34.359375 122.75ZM32.6875 122.75Q33.234375 122.75 33.6875 122.421875Q34.15625 122.078125 34.375 121.59375L34.375 121.15625Q34.375 120.09375 33.90625 119.421875Q33.4375 118.75 32.734375 118.75Q32.015625 118.75 31.578125 119.296875Q31.15625 119.84375 31.15625 120.75Q31.15625 121.625 31.5625 122.1875Q31.984375 122.75 32.6875 122.75Z" fill-rule="nonzero"/><path stroke="#cccccc" stroke-width="1.0" stroke-linecap="butt" d="M187.0 172.0L105.0 59.0" fill-rule="nonzero"/><path fill="#000000" d="M89.265625 45.5L88.1875 45.5L88.1875 38.28125L86.0 39.078125L86.0 38.09375L89.109375 36.921875L89.265625 36.921875L89.265625 45.5ZM98.0625 41.859375Q98.0625 43.765625 97.40625 44.703125Q96.765625 45.625 95.375 45.625Q94.015625 45.625 93.359375 44.71875Q92.703125 43.8125 92.671875 42.0L92.671875 40.5625Q92.671875 38.671875 93.3125 37.765625Q93.96875 36.84375 95.359375 36.84375Q96.734375 36.84375 97.390625 37.734375Q98.046875 38.609375 98.0625 40.453125L98.0625 41.859375ZM96.96875 40.375Q96.96875 39.0 96.578125 38.375Q96.203125 37.734375 95.359375 37.734375Q94.53125 37.734375 94.140625 38.375Q93.765625 39.0 93.765625 40.296875L93.765625 42.03125Q93.765625 43.40625 94.15625 44.078125Q94.5625 44.734375 95.375 44.734375Q96.171875 44.734375 96.5625 44.109375Q96.953125 43.484375 96.96875 42.15625L96.96875 40.375Z" fill-rule="nonzero"/><path stroke="#cccccc" stroke-width="1.0" stroke-linecap="butt" d="M187.0 172.0L187.0 33.0" fill-rule="nonzero"/><path stroke="#4285f4" stroke-width="2.0" stroke-linecap="butt" d="M187.0 60.0L220.0 127.0L214.0 163.0L320.0 215.0L236.0 240.0L187.0 228.0L154.0 217.0L81.0 206.0L54.0 129.0L121.0 82.0Z" fill-rule="nonzero"/><path fill="#4285f4" d="M187.0 55.5L190.89711 57.75L190.89711 62.25L187.0 64.5L183.10289 62.25L183.10289 57.75Z" fill-rule="nonzero"/><path fill="#4285f4" d="M220.0 122.5L223.89711 124.75L223.89711 129.25L220.0 131.5L216.10289 129.25L216.10289 124.75Z" fill-rule="nonzero"/><path fill="#4285f4" d="M214.0 158.5L217.89711 160.75L217.89711 165.25L214.0 167.5L210.10289 165.25L210.10289 160.75Z" fill-rule="nonzero"/><path fill="#4285f4" d="M320.0 210.5L323.89713 212.75L323.89713 217.25L320.0 219.5L316.10287 217.25L316.10287 212.75Z" fill-rule="nonzero"/><path fill="#4285f4" d="M236.0 235.5L239.89711 237.75L239.89711 242.25L236.0 244.5L232.10289 242.25L232.10289 237.75Z" fill-rule="nonzero"/><path fill="#4285f4" d="M187.0 223.5L190.89711 225.75L190.89711 230.25L187.0 232.5L183.10289 230.25L183.10289 225.75Z" fill-rule="nonzero"/><path fill="#4285f4" d="M154.0 212.5L157.89711 214.75L157.89711 219.25L154.0 221.5L150.10289 219.25L150.10289 214.75Z" fill-rule="nonzero"/><path fill="#4285f4" d="M81.0 201.5L84.89712 203.75L84.89712 208.25L81.0 210.5L77.10288 208.25L77.10288 203.75Z" fill-rule="nonzero"/><path fill="#4285f4" d="M54.0 124.5L57.897114 126.75L57.897114 131.25L54.0 133.5L50.102886 131.25L50.102886 126.75Z" fill-rule="nonzero"/><path fill="#4285f4" d="M121.0 77.5L124.89712 79.75L124.89712 84.25L121.0 86.5L117.10288 84.25L117.10288 79.75Z" fill-rule="nonzero"/></svg>